<svg version="1.1" id="icon_expand" xmlns="http://www.w3.org/2000/svg" xmlns:xlink="http://www.w3.org/1999/xlink" x="0px" y="0px"
	 width="20px" height="20px" viewBox="1.651 1.476 20 20" style="enable-background:new 1.651 1.476 20 20;" xml:space="preserve">
<g>
	<polygon points="17.206,15.193 17.206,17.39 16.029,17.39 18.898,20.259 17.834,21.326 21.652,21.326 21.652,17.506 20.585,18.572 
			"/>
	<polygon points="17.834,1.627 18.898,2.694 16.031,5.561 17.206,5.561 17.206,7.76 20.585,4.382 21.652,5.448 21.652,1.627 	"/>
	<polygon points="6.095,17.39 6.095,15.197 2.718,18.571 1.651,17.506 1.651,21.326 5.469,21.326 4.405,20.259 7.274,17.39 	"/>
	<polygon points="6.095,7.757 6.095,5.561 7.272,5.561 4.405,2.694 5.469,1.627 1.651,1.627 1.651,5.447 2.718,4.381 	"/>
	<rect x="7.376" y="6.923" width="8.549" height="9.103"/>
</g>
</svg>
