<svg version="1.1" id="icon_paint" xmlns="http://www.w3.org/2000/svg" xmlns:xlink="http://www.w3.org/1999/xlink" x="0px" y="0px"
	 width="20px" height="20px" viewBox="22 22 20 20" style="enable-background:new 22 22 20 20;" xml:space="preserve">
<path d="M22.151,30.439c-0.571,2.059,1.565,4.433,3.702,4.433c0.156,0,0.309-0.012,0.46-0.03c0.73-0.074,1.203,0.136,1.506,0.406
	c0.426,0.379,0.459,1.341,0.529,1.907c0.109,0.886,0.47,1.503,0.823,1.909c0.375,0.431,1.201,0.882,1.753,1.025
	c0.278,0.072,0.573,0.131,0.846,0.178c0.563,0.095,1.487,0.155,2.057,0.133c1.784-0.067,3.946-0.682,5.946-2.683
	c4.439-4.438,1.446-8.801-0.938-10.777C31.969,21.247,23.783,24.559,22.151,30.439z M25.512,32.785
	c-0.776,0-1.404-0.628-1.404-1.404s0.628-1.404,1.404-1.404c0.775,0,1.404,0.629,1.404,1.404
	C26.916,32.156,26.287,32.785,25.512,32.785z M29.154,29.56c-0.775,0-1.404-0.628-1.404-1.404s0.628-1.404,1.404-1.404
	c0.776,0,1.404,0.628,1.404,1.404S29.929,29.56,29.154,29.56z M32.038,38.361c-0.922,0-1.669-0.748-1.669-1.669
	c0-0.922,0.747-1.669,1.669-1.669c0.922,0,1.669,0.748,1.669,1.669C33.707,37.614,32.959,38.361,32.038,38.361z M33.289,29.56
	c-0.776,0-1.404-0.628-1.404-1.404s0.628-1.404,1.404-1.404c0.775,0,1.404,0.628,1.404,1.404S34.064,29.56,33.289,29.56z
	 M37.423,31.571c-0.775,0-1.403-0.629-1.403-1.404c0-0.775,0.628-1.404,1.403-1.404c0.776,0,1.404,0.628,1.404,1.404
	S38.199,31.571,37.423,31.571z"/>
</svg>
