<svg version="1.1" id="icon_duplicate" xmlns="http://www.w3.org/2000/svg" xmlns:xlink="http://www.w3.org/1999/xlink" x="0px" y="0px"
	 width="20px" height="20px" viewBox="26.736 26.736 20 20" style="enable-background:new 26.736 26.736 20 20;"
	 xml:space="preserve">
<g>
	<path d="M42.285,27.316H32.163c-0.854,0-1.525,0.671-1.525,1.525v1.219H28.26c-0.854,0-1.524,0.671-1.524,1.525v13.048
		c0,0.854,0.671,1.525,1.524,1.525h13.049c0.853,0,1.524-0.671,1.524-1.525v-1.219h2.378c0.853,0,1.524-0.671,1.524-1.525V31.523
		L42.285,27.316z M33.26,41.584c-0.121,0.122-0.305,0.183-0.426,0.183c-0.122,0-0.305-0.061-0.427-0.183
		c-0.244-0.244-0.244-0.61,0-0.853l4.085-4.086h-2.439c-0.366,0-0.61-0.305-0.61-0.609c0-0.366,0.305-0.61,0.61-0.61h3.902
		c0.061,0,0.183,0,0.244,0.061c0.122,0.061,0.244,0.183,0.305,0.305c0.061,0.061,0.061,0.183,0.061,0.244v3.902
		c0,0.366-0.305,0.61-0.61,0.61c-0.305,0-0.609-0.305-0.609-0.61v-2.439L33.26,41.584z M42.529,27.865l3.598,3.415h-2.317
		c-0.671,0-1.281-0.549-1.281-1.28V27.865z M41.858,44.633c0,0.305-0.244,0.488-0.488,0.488H28.26c-0.304,0-0.488-0.244-0.488-0.488
		V31.584c0-0.305,0.244-0.488,0.488-0.488h2.378v10.792c0,0.853,0.671,1.524,1.525,1.524h9.695V44.633L41.858,44.633z"/>
</g>
</svg>
