<svg version="1.1" id="icon_flipping" xmlns="http://www.w3.org/2000/svg" xmlns:xlink="http://www.w3.org/1999/xlink" x="0px" y="0px"
	 width="16px" height="16px" viewBox="5 5 16 16" enable-background="new 5 5 16 16" xml:space="preserve">
<rect x="5" y="5" fill="none" width="16" height="16"/>
<g>
	<path d="M19.882,5.516C20.497,5.232,21,5.554,21,6.231v4.923c0,0.677-0.554,1.231-1.231,1.231H6.231
		c-0.677,0-0.728-0.232-0.113-0.516L19.882,5.516z"/>
</g>
<g>
	<g>
		<path d="M19.769,14.846v4.23l-9.166-4.23H19.769 M19.769,13.615H6.231c-0.677,0-0.728,0.232-0.113,0.516l13.765,6.353
			c0.152,0.07,0.297,0.103,0.429,0.103c0.403,0,0.689-0.309,0.689-0.818v-4.923C21,14.169,20.446,13.615,19.769,13.615
			L19.769,13.615z"/>
	</g>
</g>
</svg>
