<svg version="1.1" id="icon_opacity" xmlns="http://www.w3.org/2000/svg" xmlns:xlink="http://www.w3.org/1999/xlink" x="0px" y="0px"
	 width="20px" height="20px" viewBox="246 246 20 20" style="enable-background:new 246 246 20 20;" xml:space="preserve">
<path d="M249.75,256.625l-1.25,0.001l-0.003-1.25h1.253V256.625z M249.818,251.707l-0.625,1.084l1.082,0.625l0.625-1.084
	L249.818,251.707z M263.5,256.001c0-4.141-3.359-7.5-7.5-7.5v15C260.141,263.501,263.5,260.142,263.5,256.001z M252.791,249.193
	l-1.082,0.625l0.625,1.082l1.082-0.625L252.791,249.193z M250.275,258.584l-1.084,0.626l0.626,1.081l1.082-0.626L250.275,258.584z
	 M256,266c-5.522,0-10-4.478-10-10s4.478-10,10-10s10,4.478,10,10S261.522,266,256,266z M256,264.75c4.824,0,8.75-3.926,8.75-8.75
	s-3.926-8.75-8.75-8.75s-8.75,3.926-8.75,8.75C247.25,260.824,251.176,264.75,256,264.75z M252.334,261.1l-0.626,1.084l1.083,0.624
	l0.625-1.083L252.334,261.1z"/>
</svg>
