<svg version="1.1" id="icon_document" xmlns="http://www.w3.org/2000/svg" xmlns:xlink="http://www.w3.org/1999/xlink" x="0px" y="0px"
	 width="20px" height="20px" viewBox="0.884 2.742 20 20" style="enable-background:new 0.884 2.742 20 20;" xml:space="preserve">
<path style="fill:#2D2D2D;" d="M19.073,21.248V3.42c0-0.541-0.68-0.677-0.68-0.677H4.734c-2.039,0-2.04,1.886-2.04,1.886v17.39
	c0,0.399,0.324,0.724,0.726,0.724h13.041c0.399,0,0.722-0.325,0.722-0.724l1.164-0.004C19.128,22.016,19.073,21.248,19.073,21.248z
	 M13.734,8.766h-7.48V7.352h7.48V8.766z M17.933,20.89c0,0-0.129,0.47-0.749,0.47v-5.648V5.385c0-0.401-0.324-0.725-0.722-0.725
	L4.12,4.655c0-0.498,0.747-0.75,0.747-0.75h12.316c0.771,0,0.749,0.679,0.749,0.679L17.933,20.89L17.933,20.89z"/>
</svg>
