<svg version="1.1" id="icon_shadow" xmlns="http://www.w3.org/2000/svg" xmlns:xlink="http://www.w3.org/1999/xlink" x="0px" y="0px"
	 width="20px" height="20px" viewBox="40.001 40.002 20 20" style="enable-background:new 40.001 40.002 20 20;"
	 xml:space="preserve">
<path d="M41.259,44.83l0.049,10.353c0.001,0.134,0.074,0.255,0.191,0.318l8.269,4.33c0.054,0.029,0.113,0.044,0.173,0.044
	c0,0,0,0,0.001,0c0.025,0.029,0.053,0.055,0.086,0.075c0.058,0.034,0.121,0.051,0.186,0.051c0.059,0,0.119-0.015,0.173-0.044
	l8.164-4.428c0.118-0.064,0.19-0.186,0.19-0.32V44.438c0-0.004-0.001-0.006-0.001-0.01c0-0.002,0.001-0.005,0.001-0.008
	c0-0.01-0.004-0.02-0.005-0.03c-0.002-0.02-0.005-0.04-0.011-0.059c-0.004-0.014-0.01-0.025-0.015-0.038
	c-0.007-0.018-0.015-0.034-0.025-0.049c-0.007-0.013-0.016-0.023-0.025-0.034c-0.011-0.014-0.024-0.028-0.036-0.04
	c-0.011-0.01-0.023-0.019-0.034-0.026c-0.007-0.005-0.014-0.013-0.023-0.018c-0.007-0.005-0.018-0.006-0.025-0.011
	c-0.007-0.004-0.012-0.009-0.02-0.011l-8.414-4.075c-0.098-0.041-0.209-0.038-0.305,0.01l-8.321,4.334
	c-0.123,0.061-0.199,0.186-0.2,0.323c0,0.002,0.001,0.004,0.001,0.006C41.269,44.743,41.259,44.785,41.259,44.83z M57.538,44.478
	l-7.329,4.098l-7.762-3.874l7.531-3.939L57.538,44.478z M50.576,59.029v-9.826l7.438-4.157v9.947L50.576,59.029z"/>
</svg>
