<svg version="1.1" id="icon_instagram" xmlns="http://www.w3.org/2000/svg" xmlns:xlink="http://www.w3.org/1999/xlink" x="0px" y="0px"
	 width="28px" height="28px" viewBox="10 10 28 28" style="enable-background:new 10 10 28 28;" xml:space="preserve">
<g id="Instagram">
	<path d="M13.257,17.583c-0.323,0-0.583-0.261-0.583-0.583v-5.25c0-0.323,0.261-0.583,0.583-0.583s0.583,0.261,0.583,0.583V17
		C13.84,17.323,13.579,17.583,13.257,17.583z"/>
	<path d="M15.226,17.583c-0.323,0-0.583-0.261-0.583-0.583v-5.688c0-0.323,0.261-0.583,0.583-0.583s0.583,0.261,0.583,0.583V17
		C15.809,17.323,15.548,17.583,15.226,17.583z"/>
	<path d="M17.194,17.583c-0.323,0-0.583-0.261-0.583-0.583v-5.688c0-0.323,0.261-0.583,0.583-0.583s0.583,0.261,0.583,0.583V17
		C17.778,17.323,17.517,17.583,17.194,17.583z"/>
	<path d="M31.754,38H16.952C12.534,38,10,35.675,10,31.619V17.073C10,12.843,12.491,10,16.198,10h16.091
		C35.035,10,38,12.639,38,16.903v14.632C38,35.16,35.257,38,31.754,38z M16.198,11.167c-3.713,0-5.031,3.181-5.031,5.906V31.62
		c0,4.309,3.146,5.213,5.785,5.213h14.802c2.896,0,5.08-2.278,5.08-5.298V16.903c0-3.543-2.359-5.736-4.545-5.736H16.198z"/>
	<path d="M23.999,18.896c-2.47,0-4.472,2.003-4.472,4.473s2.003,4.472,4.472,4.472s4.472-2.002,4.472-4.472
		S26.469,18.896,23.999,18.896z M23.999,25.604c-1.235,0-2.236-1.001-2.236-2.236s1.002-2.236,2.236-2.236s2.236,1.002,2.236,2.236
		S25.234,25.604,23.999,25.604z"/>
	<path d="M23.999,30.466c-3.914,0-7.097-3.184-7.097-7.097s3.184-7.097,7.097-7.097s7.097,3.184,7.097,7.097
		S27.913,30.466,23.999,30.466z M23.999,17.438c-3.27,0-5.931,2.661-5.931,5.931s2.661,5.931,5.931,5.931s5.931-2.661,5.931-5.931
		S27.27,17.438,23.999,17.438z"/>
	<rect x="29.249" y="18.703" width="8.167" height="1.26"/>
	<rect x="10.874" y="18.72" width="7.729" height="1.226"/>
	<path d="M34.111,15.911c0,0.709-0.575,1.284-1.285,1.284h-1.904c-0.709,0-1.285-0.575-1.285-1.284v-1.905
		c0-0.709,0.575-1.284,1.285-1.284h1.904c0.709,0,1.285,0.575,1.285,1.284V15.911z"/>
</g>
</svg>
