<svg version="1.1" id="icon_color" xmlns="http://www.w3.org/2000/svg" xmlns:xlink="http://www.w3.org/1999/xlink" x="0px" y="0px"
	 width="20px" height="20px" viewBox="18 38 20 20" style="enable-background:new 18 38 20 20;" xml:space="preserve">
<path d="M28.211,38.167c-0.028-0.223-0.395-0.223-0.423,0c-0.92,7.404-5.622,8.93-5.622,14.076C22.167,55.422,24.837,58,28,58
	s5.833-2.578,5.833-5.757C33.833,47.097,29.131,45.572,28.211,38.167z M27.323,46.352c-0.062,0.228-0.128,0.463-0.196,0.705
	c-0.418,1.484-0.892,3.166-0.892,5.112c0,1.053-0.622,1.428-1.205,1.428c-0.664,0-1.205-0.545-1.205-1.215
	c0-2.299,1.107-3.801,2.084-5.126c0.306-0.415,0.595-0.807,0.83-1.198c0.108-0.178,0.396-0.171,0.528,0.006
	C27.329,46.149,27.35,46.254,27.323,46.352z"/>
</svg>
