<svg version="1.1" id="icon_save" xmlns="http://www.w3.org/2000/svg" xmlns:xlink="http://www.w3.org/1999/xlink" x="0px" y="0px"
	 width="20px" height="20px" viewBox="21.309 21.876 20 20" style="enable-background:new 21.309 21.876 20 20;"
	 xml:space="preserve">
<path d="M33.613,24.694h-4.101c-0.179,0-0.325,0.145-0.325,0.324v3.573h-3.899c-0.179,0-0.229,0.109-0.109,0.243l6.148,6.944
	c0.119,0.135,0.312,0.135,0.431,0.001l6.187-6.945c0.119-0.135,0.071-0.243-0.109-0.243h-3.898v-3.573
	C33.938,24.84,33.792,24.694,33.613,24.694z"/>
<path d="M39.911,25.245h-2.589c-0.771,0-1.397,0.547-1.397,1.222c0,0.675,0,1.222,0,1.222h2.938v8.923h-15.11V27.69h3.445v-1.222
	c0-0.675-0.625-1.222-1.397-1.222h-3.097c-0.771,0-1.397,0.625-1.397,1.397v11.018c0,0.772,0.625,1.397,1.397,1.397h17.206
	c0.771,0,1.397-0.625,1.397-1.397V26.642C41.309,25.871,40.683,25.245,39.911,25.245z"/>
</svg>
