<svg version="1.1" id="icon_close" xmlns="http://www.w3.org/2000/svg" xmlns:xlink="http://www.w3.org/1999/xlink" x="0px" y="0px"
	 width="20px" height="20px" viewBox="-1.5 -1.5 20 20" style="enable-background:new -1.5 -1.5 20 20;" xml:space="preserve">
<path d="M8.5-1.5c-5.523,0-10,4.477-10,10c0,5.524,4.477,10,10,10c5.524,0,10-4.476,10-10C18.5,2.977,14.024-1.5,8.5-1.5z
	 M13.133,4.809L9.417,8.527l3.289,3.664c0.26,0.26,0.26,0.683,0,0.943s-0.683,0.26-0.943,0L8.475,9.469L4.81,13.133
	c-0.26,0.26-0.683,0.26-0.943,0s-0.26-0.683,0-0.943l3.716-3.716L4.295,4.809c-0.26-0.26-0.26-0.683,0-0.943s0.683-0.26,0.943,0
	l3.289,3.665l3.664-3.665c0.26-0.26,0.683-0.26,0.943,0C13.393,4.127,13.393,4.549,13.133,4.809z"/>
</svg>
