<svg version="1.1" id="icon_position" xmlns="http://www.w3.org/2000/svg" xmlns:xlink="http://www.w3.org/1999/xlink" x="0px" y="0px"
	 width="20px" height="20px" viewBox="263.368 390.81 20 20" style="enable-background:new 263.368 390.81 20 20;"
	 xml:space="preserve">
<g>
	<path d="M279.354,401.415c-0.125-0.267-0.121-0.678,0.011-0.942c0.445-0.894,0.699-1.9,0.699-2.967
		c0-3.698-2.998-6.696-6.696-6.696s-6.696,2.998-6.696,6.696c0,1.067,0.254,2.073,0.7,2.967c0.131,0.264,0.136,0.675,0.011,0.942
		c-0.397,0.847-0.622,1.791-0.622,2.787c0,3.644,2.964,6.608,6.608,6.608s6.608-2.964,6.608-6.608
		C279.976,403.206,279.751,402.263,279.354,401.415z M268.037,402.303c0.1-0.278,0.356-0.309,0.564-0.099
		c1.214,1.232,2.901,1.997,4.767,1.997s3.553-0.765,4.767-1.997c0.207-0.21,0.464-0.179,0.564,0.099
		c0.214,0.594,0.333,1.232,0.333,1.898c0,3.123-2.541,5.664-5.663,5.664c-3.123,0-5.664-2.541-5.664-5.664
		C267.705,403.535,267.824,402.897,268.037,402.303z"/>
</g>
</svg>
