<svg version="1.1" id="icon_facebook" xmlns="http://www.w3.org/2000/svg" xmlns:xlink="http://www.w3.org/1999/xlink" x="0px" y="0px"
	 width="28px" height="28px" viewBox="10 10 28 28" style="enable-background:new 10 10 28 28;" xml:space="preserve">
<g id="Facebook">
	<path d="M31.754,38H16.952C12.534,38,10,35.675,10,31.619V17.073C10,12.843,12.491,10,16.198,10h16.091
		C35.035,10,38,12.639,38,16.903v14.632C38,35.16,35.256,38,31.754,38z M16.198,11.167c-3.713,0-5.031,3.181-5.031,5.906V31.62
		c0,4.309,3.146,5.213,5.785,5.213h14.802c2.896,0,5.08-2.278,5.08-5.298V16.903c0-3.543-2.359-5.736-4.545-5.736H16.198z"/>
	<path d="M31.662,35.273H16.381c-2.018,0-3.659-1.638-3.659-3.652V16.379c0-2.014,1.642-3.652,3.659-3.652h15.282
		c2.017,0,3.659,1.638,3.659,3.652v15.244C35.321,33.636,33.679,35.273,31.662,35.273z M16.381,13.884
		c-1.38,0-2.502,1.119-2.502,2.494v15.244c0,1.375,1.122,2.494,2.502,2.494h15.282c1.379,0,2.501-1.119,2.501-2.494V16.379
		c0-1.375-1.122-2.494-2.501-2.494L16.381,13.884L16.381,13.884z"/>
	<path d="M27.863,33.333h-2.839c-0.322,0-0.583-0.261-0.583-0.583v-7.527h-1.85c-0.322,0-0.583-0.261-0.583-0.583V21.8
		c0-0.323,0.261-0.583,0.583-0.583h1.748c-0.01-2.462-0.017-4.588,1.821-5.558c0.683-0.361,1.796-0.545,3.308-0.545
		c0.727,0,1.269,0.044,1.292,0.047c0.303,0.025,0.535,0.279,0.535,0.582l-0.007,2.814c-0.001,0.322-0.262,0.582-0.583,0.582h-1.876
		c-0.356,0-0.379,0.627-0.379,0.634v1.444h2.255c0.322,0,0.583,0.261,0.583,0.583v2.84c0,0.323-0.261,0.583-0.583,0.583h-2.255
		v7.527C28.446,33.073,28.185,33.333,27.863,33.333z M25.607,32.167h1.672v-7.527c0-0.323,0.261-0.583,0.583-0.583h2.255v-1.673
		h-2.255c-0.322,0-0.583-0.261-0.583-0.583v-2.028c0-0.723,0.412-1.8,1.546-1.8h1.294l0.004-1.679
		c-0.187-0.008-0.412-0.013-0.658-0.013c-1.282,0-2.263,0.146-2.763,0.41c-1.157,0.611-1.208,2.045-1.199,4.525l0.001,0.585
		c0,0.323-0.261,0.583-0.583,0.583h-1.749v1.673h1.85c0.322,0,0.583,0.261,0.583,0.583L25.607,32.167L25.607,32.167z"/>
</g>
</svg>
