<svg version="1.1" id="icon_delete" xmlns="http://www.w3.org/2000/svg" xmlns:xlink="http://www.w3.org/1999/xlink" x="0px" y="0px"
	 width="20px" height="20px" viewBox="3 4.209 20 20" style="enable-background:new 3 4.209 20 20;" xml:space="preserve">
<path d="M22.798,19.308l-5.1-5.101l5.1-5.099c0.268-0.268,0.269-0.704,0-0.971l-3.727-3.726c-0.269-0.269-0.704-0.268-0.973,0
	L13,9.511l-5.1-5.1c-0.269-0.268-0.704-0.269-0.971,0L3.202,8.136c-0.269,0.269-0.268,0.704,0,0.971l5.1,5.1l-5.1,5.1
	c-0.268,0.268-0.269,0.702,0,0.971l3.727,3.727c0.268,0.269,0.704,0.268,0.971,0l5.1-5.1l5.1,5.1c0.269,0.269,0.704,0.269,0.973,0
	l3.727-3.727C23.067,20.011,23.067,19.576,22.798,19.308z"/>
</svg>
